PathFileType	4	(X/Y/Z)	W:\OA_GaitRetraining\ACL OpenCap study\PS1\Edited\Trimmed_C90_L101.trc
DataRate	CameraRate	NumFrames	NumMarkers	Units	OrigDataRate	OrigDataStartFrame	OrigNumFrames
200.00	200.00	       6	46	mm	200.00	92	       147
Frame#	Time	C7			R_Shoulder			L_Shoulder			Sternum			R_humerus			R_elbow_med			R_elbow_lat			R_forearm			R_wrist_radius			R_wrist_ulna			L_humerus			L_elbow_med			L_elbow_lat			L_forearm			L_wrist_radius			L_wrist_ulna			r.ASIS			r.PSIS			L.ASIS			L.PSIS			r_thigh1			r_thigh2			r_thigh3			r_thigh4			r_thigh5			r_knee			r_shank_antsup			r_sh2			r_sh3			r_sh4			r_ankle			r_calc			r_5meta			r_toe			L_thigh1			L_thigh2			L_thigh3			L_thigh4			L_knee			L_shank_antsup			L_sh2			L_sh3			L_ankle			L_calc			L_5meta			L_toe			
		X1	Y1	Z1	X2	Y2	Z2	X3	Y3	Z3	X4	Y4	Z4	X5	Y5	Z5	X6	Y6	Z6	X7	Y7	Z7	X8	Y8	Z8	X9	Y9	Z9	X10	Y10	Z10	X11	Y11	Z11	X12	Y12	Z12	X13	Y13	Z13	X14	Y14	Z14	X15	Y15	Z15	X16	Y16	Z16	X17	Y17	Z17	X18	Y18	Z18	X19	Y19	Z19	X20	Y20	Z20	X21	Y21	Z21	X22	Y22	Z22	X23	Y23	Z23	X24	Y24	Z24	X25	Y25	Z25	X26	Y26	Z26	X27	Y27	Z27	X28	Y28	Z28	X29	Y29	Z29	X30	Y30	Z30	X31	Y31	Z31	X32	Y32	Z32	X33	Y33	Z33	X34	Y34	Z34	X35	Y35	Z35	X36	Y36	Z36	X37	Y37	Z37	X38	Y38	Z38	X39	Y39	Z39	X40	Y40	Z40	X41	Y41	Z41	X42	Y42	Z42	X43	Y43	Z43	X44	Y44	Z44	X45	Y45	Z45	X46	Y46	Z46	

92	0.455	896.47723	6.98616	1153.01343	936.27557	-149.69971	1100.25427	987.22821	111.84204	1036.06091	976.16565	-41.19393	1023.35089	744.75317	-288.74942	1030.58887	624.76416	-241.45300	1006.45886	654.15662	-311.73373	1005.09656	593.81500	-353.90256	862.40802	525.52094	-367.90970	812.29272	566.95520	-352.06427	786.38770	1015.63953	187.78358	881.17377	1001.64661	154.84581	699.41162	1037.74451	209.70561	723.94214	1122.62073	180.92154	740.07751	1231.28870	86.52072	750.04358	1240.97229	116.64989	705.81281	739.80048	-197.49030	717.18958	594.61279	-66.13575	809.52014	812.08740	53.57716	740.17188	606.05896	-0.00834	814.00909	770.39355	-247.08759	655.85016	871.48889	-267.38049	588.68011	856.08923	-297.19720	539.96771	705.65131	-267.42725	567.31409	802.44092	-277.70697	503.86853	946.44507	-287.70313	421.96149	943.61578	-254.26920	322.59509	901.69348	-182.46886	238.25595	875.26941	-249.13152	357.66943	826.33643	-179.18748	277.00128	792.47504	-92.34351	146.50723	747.86694	-12.48787	159.05827	852.98676	-115.09846	53.01553	923.66168	-95.97836	86.77991	867.92279	86.48254	670.33984	965.04492	97.13509	572.48615	793.25610	164.98180	620.21375	890.89612	164.87273	518.67963	1008.26544	169.47359	429.78455	1026.96082	234.84503	279.38260	948.39203	257.92575	317.60660	912.84222	289.26410	205.83015	918.66742	339.22751	104.34325	839.76727	332.16632	74.77821	1007.30585	352.03629	22.29404	1034.51062	287.95224	57.00029	
93	0.460	906.46405	0.40146	1153.99243	943.00183	-156.53621	1101.85742	998.07703	104.20906	1038.32861	984.46307	-48.58588	1024.61511	748.49121	-293.52133	1034.62378	629.74561	-244.70595	1011.14258	657.24628	-315.46231	1011.30957	592.41937	-361.89630	872.03735	522.04645	-376.31601	824.77386	561.98169	-362.12601	796.59253	1029.58606	176.58786	883.01990	1021.70746	137.82712	702.16016	1058.99829	191.76260	726.52673	1141.09436	160.14130	748.63354	1245.47412	62.08529	767.41760	1258.49646	89.81934	723.16168	747.40625	-201.93733	718.68591	602.39362	-69.87786	810.63574	819.91895	49.06560	741.12244	614.10999	-4.44046	815.81531	775.63257	-253.08339	660.45331	877.52399	-272.95227	594.27216	863.48669	-304.66406	547.00134	712.65204	-273.74042	571.66980	810.38898	-285.20300	508.78598	955.16931	-297.67078	428.97134	955.44556	-266.13861	329.21094	914.76715	-194.13763	242.90335	885.20953	-258.74921	362.69815	839.68024	-188.23524	280.97870	808.88062	-103.44118	147.99855	765.39703	-22.59095	158.53664	870.55286	-129.04988	55.60882	940.49042	-110.98591	90.67133	876.47296	83.92043	669.35913	971.22363	94.14184	570.31976	800.17426	160.95818	619.80359	896.21863	161.56407	517.20367	1012.09888	167.58293	427.80978	1030.01624	234.07155	277.79858	951.26221	256.05765	317.18573	914.61627	288.09677	206.06038	919.24841	338.77887	104.83908	839.62238	332.02164	75.96379	1007.26489	352.08746	22.36388	1034.60474	288.01617	56.93237	
94	0.465	913.69861	-4.72929	1155.82922	949.44281	-163.67125	1103.72632	1008.95752	96.24483	1040.94348	992.77356	-56.28115	1026.25415	752.10376	-298.16434	1038.66736	634.21320	-248.38754	1016.03436	660.48621	-319.13794	1017.75494	590.08704	-369.59897	882.47968	519.16333	-383.92892	838.54541	557.82068	-372.24118	808.02570	1044.38367	164.85722	885.62787	1040.69495	120.30932	705.69232	1079.41211	173.52296	730.08405	1159.64490	138.81055	757.52887	1257.95959	37.99443	786.05017	1274.24817	62.83823	741.15814	754.91132	-206.50992	720.18085	610.31885	-74.48474	812.71130	827.83551	44.36925	742.00659	622.24530	-8.91525	817.65161	781.78113	-257.73959	665.13074	885.88776	-278.58130	601.69287	870.77582	-312.31415	553.97424	720.01709	-280.22900	576.23340	818.04425	-294.42743	515.62836	963.49731	-308.38608	436.06595	964.99622	-277.13770	334.56720	927.56134	-206.11113	247.71289	894.82605	-268.51559	367.97617	851.95190	-198.26649	284.58362	825.20331	-114.95425	149.71675	782.96057	-33.02914	158.28770	887.44617	-143.46457	58.82067	956.53540	-126.27076	94.00329	884.64532	80.90916	668.49438	978.02441	92.10446	568.14197	806.84045	156.85327	619.60870	901.66345	158.19049	515.71295	1015.96307	165.70674	425.80472	1032.27942	232.46794	276.71979	954.06299	254.14719	316.64133	916.28174	287.02194	206.49757	920.31036	338.33298	106.77382	840.33704	331.52005	76.50483	1007.22296	352.18289	22.53219	1034.70947	288.06241	56.86868	
95	0.470	922.07617	-11.03181	1157.82959	956.56793	-171.33551	1106.23242	1019.85706	87.79536	1043.97278	1000.99695	-64.19540	1028.10095	755.35736	-302.84937	1043.08032	638.49268	-252.08089	1021.48883	663.98132	-323.07098	1024.67310	589.27338	-376.87164	893.44177	516.57153	-391.41495	852.32379	553.82245	-381.79034	820.41986	1058.56042	152.68672	888.66132	1058.81628	102.51582	709.99866	1099.06091	154.76843	734.54535	1176.68042	117.50219	767.27289	1268.30505	13.52983	803.98505	1288.15466	36.07233	759.84155	762.33130	-211.44836	721.72607	618.15021	-78.82606	814.22430	836.00476	39.19660	742.61108	630.59009	-13.53215	819.31805	788.16498	-262.43616	670.06677	891.76154	-285.92328	607.34540	877.86133	-320.19675	561.06409	726.71307	-286.92712	580.69141	825.59576	-303.05261	521.60675	971.81738	-318.92474	443.43228	974.73358	-288.82584	341.15637	940.00018	-218.44255	252.72804	903.95087	-278.61002	373.66595	864.22943	-208.32553	288.39334	841.25909	-126.72317	151.88637	800.59076	-43.90108	158.32465	903.92041	-158.49646	62.57634	972.95319	-141.73441	98.17305	892.76270	78.03242	667.53210	985.01550	90.68123	565.69910	813.26727	152.55861	619.44757	906.64575	154.98479	514.37604	1019.74683	163.72585	423.71680	1035.01746	231.52133	275.16171	956.77802	251.97374	316.36011	917.91785	285.76822	206.77498	920.19806	338.15765	106.70635	840.24341	331.36563	77.72031	1007.13672	352.27692	22.74199	1034.79358	288.07095	56.88630	
96	0.475	930.70996	-17.77234	1159.50635	962.51733	-179.01714	1108.54346	1030.59680	79.10420	1047.25378	1009.14209	-72.42738	1030.20166	758.30103	-307.63513	1047.86487	642.52423	-255.93343	1027.24219	667.41083	-326.83319	1031.52832	588.28186	-383.66632	904.65411	513.19965	-398.69229	866.79901	549.99164	-390.84427	833.43372	1072.66309	140.03836	892.21198	1076.35583	84.35932	714.81470	1118.51440	135.35205	739.54260	1192.78979	95.91080	777.21729	1275.86060	-10.45558	822.15869	1300.24402	9.38725	778.80170	769.68939	-216.56046	723.32581	625.97766	-83.21759	815.65924	844.35431	33.72454	743.10645	639.07660	-18.24913	820.89655	794.34528	-267.45178	674.68274	899.10516	-292.26959	613.54382	884.80029	-328.21259	568.08606	733.67120	-293.78140	585.26996	832.96735	-311.80096	527.67432	979.66913	-329.66168	450.47586	984.13202	-300.74625	347.79440	952.25977	-231.05945	257.81668	913.01062	-288.60190	379.01517	876.22461	-218.61452	292.43091	857.21045	-138.84308	154.23933	818.21515	-54.95195	158.57056	920.16901	-173.77602	66.69349	989.93347	-157.32399	103.13135	901.05676	74.86358	666.43921	991.69458	88.27980	563.37769	820.03821	148.31923	619.28015	911.89246	151.43091	512.90289	1023.45422	161.68195	421.67661	1037.14856	229.83162	274.13522	959.36688	250.09204	315.89487	919.52777	284.52283	207.02783	920.71051	337.71680	107.37939	840.42480	330.94940	78.67628	1007.06573	352.35068	23.00481	1034.84937	288.03638	56.88180	
97	0.480	938.72607	-24.50024	1161.81189	968.33484	-186.82574	1111.02869	1041.17407	70.11637	1050.70984	1017.14331	-80.88522	1032.53589	762.03607	-312.90039	1051.74878	646.26093	-259.87076	1033.53503	670.96606	-330.92285	1038.45288	587.61163	-390.05615	916.28571	510.80222	-405.29837	881.55646	546.67603	-399.45291	847.18842	1086.57324	126.92501	896.25977	1093.38403	65.89893	720.95978	1137.42053	116.37119	745.31012	1207.93237	74.08717	787.27771	1282.70068	-34.25483	841.03516	1310.58447	-16.86368	797.89703	776.94366	-221.82762	724.98053	633.84827	-87.73778	817.03583	852.84082	28.18219	743.03326	647.49396	-22.47482	821.71826	800.43622	-272.75284	679.34857	905.00134	-299.54153	619.28723	891.46790	-336.41394	574.94293	740.56030	-300.57233	589.98920	840.20361	-320.57874	533.59564	987.62311	-340.74561	457.72876	993.17139	-313.02213	354.95941	964.46539	-243.85918	263.07904	922.28247	-298.71512	384.66623	888.26379	-229.10120	296.45480	873.03107	-151.21738	156.76311	835.75848	-66.38689	159.13040	936.25568	-189.26852	71.08916	1005.94159	-173.60681	108.12426	909.45056	71.75076	664.88507	998.18225	85.88371	561.01581	826.59076	143.91487	619.30164	917.03040	148.00066	511.63354	1027.40417	159.52318	419.66412	1039.85913	228.72403	272.64575	962.40613	248.15089	315.67926	921.06647	283.19397	207.30893	921.11267	337.19550	108.09663	841.08728	330.31229	79.32309	1007.13239	352.39035	23.24191	1034.89697	288.01947	56.86245	
